<svg width="200" height="210" viewBox="0 0 200 210" xmlns="http://www.w3.org/2000/svg">
  <!-- 상반신 : 군복 -->
  <path d="M28 210 C28 170, 54 149, 100 149 C146 149, 172 170, 172 210 Z" fill="#6B7D5C"/>
  <!-- 옷깃 -->
  <path d="M100 149 L79 167 L100 178 Z" fill="#5A6B4C"/>
  <path d="M100 149 L121 167 L100 178 Z" fill="#5A6B4C"/>
  <!-- 계급장 -->
  <path d="M138 182 L152 186 L138 190 Z" fill="#D2A55C"/>
  <path d="M138 192 L152 196 L138 200 Z" fill="#D2A55C"/>

  <!-- 목 -->
  <ellipse cx="100" cy="150" rx="17" ry="13" fill="#DFB78E"/>

  <!-- 귀 -->
  <ellipse cx="58" cy="110" rx="7.5" ry="9.5" fill="#EFCDA6"/>
  <ellipse cx="142" cy="110" rx="7.5" ry="9.5" fill="#EFCDA6"/>

  <!-- 얼굴 -->
  <ellipse cx="100" cy="105" rx="43" ry="45" fill="#F2D3AF"/>

  <!-- 베레모 -->
  <ellipse cx="100" cy="28" rx="7.5" ry="5.5" fill="#4E6144"/>
  <path d="M52 71
           C52 43, 72 29, 100 29
           C133 29, 157 43, 159 61
           C160 70, 151 76, 138 77
           C120 79, 70 79, 62 77
           C55 76, 52 75, 52 71 Z" fill="#4E6144"/>
  <rect x="57" y="70" width="86" height="11" rx="5.5" fill="#33422C"/>
  <!-- 모표 : 가격표 -->
  <g transform="rotate(-10 76 55)">
    <path d="M70 45 L82 45 A4.5 4.5 0 0 1 86.5 49.5 L86.5 64 A4.5 4.5 0 0 1 82 68.5
             L69 68.5 A4.5 4.5 0 0 1 64.5 64 L64.5 49.5 Z" fill="#D2A55C"/>
    <circle cx="70.5" cy="51.5" r="2.6" fill="#4E6144"/>
  </g>

  <!-- 눈썹 -->
  <path d="M75 96 Q83 92, 91 96" stroke="#2E3B28" stroke-width="3" stroke-linecap="round" fill="none"/>
  <path d="M109 96 Q117 92, 125 96" stroke="#2E3B28" stroke-width="3" stroke-linecap="round" fill="none"/>
  <!-- 눈 -->
  <circle cx="83" cy="109" r="4.6" fill="#2E3B28"/>
  <circle cx="117" cy="109" r="4.6" fill="#2E3B28"/>
  <circle cx="84.6" cy="107.4" r="1.5" fill="#fff"/>
  <circle cx="118.6" cy="107.4" r="1.5" fill="#fff"/>
  <!-- 볼 -->
  <ellipse cx="69" cy="121" rx="8.5" ry="5.5" fill="#E79C86" opacity=".55"/>
  <ellipse cx="131" cy="121" rx="8.5" ry="5.5" fill="#E79C86" opacity=".55"/>
  <!-- 입 -->
  <path d="M90 125 Q100 134, 110 125" stroke="#2E3B28" stroke-width="3.2"
        stroke-linecap="round" fill="none"/>
</svg>
